<?xml version="1.0" standalone="no"?>
<!DOCTYPE svg PUBLIC "-//W3C//DTD SVG 20010904//EN"
 "http://www.w3.org/TR/2001/REC-SVG-20010904/DTD/svg10.dtd">
<svg version="1.0" xmlns="http://www.w3.org/2000/svg"
 width="256.000000pt" height="256.000000pt" viewBox="0 0 256.000000 256.000000"
 preserveAspectRatio="xMidYMid meet">
<metadata>
Created by potrace 1.11, written by Peter Selinger 2001-2013
</metadata>
<g transform="translate(0.000000,256.000000) scale(0.100000,-0.100000)"
fill="#000000" stroke="none">
<path d="M1206 2492 c-3 -2 -11 -5 -20 -6 -18 -2 -68 -53 -81 -81 -11 -23 -13
-115 -4 -109 9 5 30 -21 24 -29 -3 -4 -2 -5 1 -3 9 7 54 -36 48 -46 -3 -4 1
-8 8 -8 15 0 78 -57 78 -71 0 -5 6 -9 13 -9 17 0 63 -51 59 -65 -2 -5 0 -7 3
-3 4 4 20 -6 35 -22 16 -17 33 -30 39 -30 15 0 14 -46 -2 -62 -19 -19 -15 -89
7 -121 23 -34 18 -40 -20 -27 -16 5 -40 9 -54 7 -37 -3 -89 -38 -102 -69 -7
-14 -15 -25 -19 -22 -4 2 -5 -5 -2 -16 3 -12 0 -20 -8 -20 -7 0 -10 -3 -6 -6
9 -9 -25 -44 -37 -37 -6 3 -8 3 -4 -2 4 -4 -15 -29 -42 -55 -27 -27 -46 -51
-43 -54 4 -3 -1 -6 -11 -6 -9 0 -14 -4 -11 -10 3 -5 -1 -10 -9 -10 -9 0 -15
-3 -14 -7 2 -5 -23 -35 -55 -68 -31 -33 -57 -64 -57 -68 0 -5 -4 -5 -10 -2 -5
3 -10 1 -10 -5 0 -6 -5 -8 -12 -4 -7 4 -8 3 -4 -5 8 -12 -16 -41 -33 -41 -6 0
-10 -3 -8 -8 1 -4 -23 -33 -54 -65 -31 -31 -55 -57 -54 -57 2 0 -15 -19 -38
-43 -22 -23 -45 -41 -50 -39 -4 1 -6 -1 -3 -6 7 -11 -80 -93 -90 -84 -4 4 -4
2 0 -5 7 -13 -38 -63 -56 -63 -6 0 -9 -3 -5 -6 7 -8 -64 -80 -76 -76 -5 1 -6
-2 -2 -8 3 -5 -1 -13 -9 -16 -9 -3 -14 -10 -11 -15 5 -7 -54 -29 -78 -29 -5 0
-21 -12 -36 -27 -22 -23 -28 -38 -30 -86 -2 -37 1 -57 9 -57 6 0 9 -4 6 -8 -3
-5 6 -20 20 -35 15 -16 20 -27 12 -27 -10 0 -10 -2 1 -9 11 -7 10 -13 -5 -35
-11 -14 -25 -23 -32 -21 -7 3 -10 0 -7 -6 8 -12 -14 -41 -26 -33 -5 3 -9 -4
-9 -16 0 -12 -4 -18 -10 -15 -5 3 -10 2 -10 -3 0 -5 -15 -26 -32 -46 -18 -20
-41 -47 -51 -61 -10 -14 -25 -25 -33 -25 -8 0 -13 -4 -10 -9 7 -11 -19 -33
-28 -24 -4 4 -4 0 -1 -9 4 -9 1 -19 -4 -23 -6 -3 -9 -11 -6 -16 4 -5 2 -9 -2
-9 -5 0 -9 -11 -9 -25 0 -14 4 -25 9 -25 4 0 6 -4 2 -10 -7 -11 25 -50 42 -50
7 0 13 -4 13 -8 0 -12 39 -12 46 0 4 6 10 5 15 -3 7 -11 9 -11 9 -1 0 7 5 10
10 7 6 -3 10 -1 10 5 0 6 3 10 8 8 4 -2 23 13 43 34 21 21 35 38 33 38 -2 0 7
11 19 23 12 13 27 23 32 23 6 -1 9 5 7 12 -1 6 4 11 10 10 7 -2 12 2 11 9 -2
6 6 15 17 18 11 4 25 15 31 26 5 11 14 17 20 14 5 -4 9 0 9 7 0 23 58 67 80
61 11 -3 20 -8 20 -12 0 -3 13 -12 29 -19 33 -15 131 -14 131 1 0 5 9 7 20 4
11 -3 18 -1 15 3 -3 5 2 15 10 24 9 8 15 17 14 18 -1 2 1 19 4 38 7 35 91 138
109 132 5 -1 7 1 4 6 -3 5 9 22 27 38 19 16 33 31 33 34 0 3 41 47 92 98 50
50 88 92 86 92 -3 0 33 38 80 85 47 47 86 90 86 96 0 5 5 7 10 4 6 -3 10 1 10
9 0 9 7 16 15 16 8 0 15 6 15 13 0 14 35 47 44 41 3 -2 4 -1 1 3 -8 10 16 33
28 26 5 -3 7 -2 4 4 -4 6 7 22 23 37 17 14 30 31 30 37 0 5 5 7 10 4 6 -3 10
-2 10 3 0 10 101 116 134 142 18 13 19 13 12 0 -4 -9 -2 -8 7 2 8 10 17 15 20
11 4 -3 7 -1 7 6 0 8 6 11 16 7 8 -3 12 -2 9 3 -3 6 3 14 12 20 10 6 14 11 10
11 -5 0 -1 7 7 16 18 17 23 104 6 104 -5 0 -10 9 -10 20 0 24 13 26 34 4 9 -8
16 -13 16 -10 0 2 13 1 30 -4 18 -5 32 -5 36 1 3 5 9 7 13 4 5 -2 17 2 27 10
10 8 25 15 33 15 8 0 45 -31 82 -69 38 -37 69 -66 69 -63 0 2 7 -1 15 -8 8 -7
12 -17 8 -24 -3 -6 -3 -8 1 -4 5 4 23 -8 41 -25 74 -72 125 -118 125 -113 0 3
11 1 25 -4 15 -6 25 -6 25 0 0 5 9 7 20 5 11 -2 20 0 20 6 0 5 7 9 15 9 8 0
15 7 15 16 0 8 3 13 8 11 4 -3 13 1 20 9 7 8 10 14 6 14 -4 0 1 9 11 20 10 11
15 20 11 20 -4 0 -2 8 3 19 6 10 7 21 4 25 -4 4 -8 16 -10 27 -2 12 -17 34
-33 49 -16 15 -26 31 -22 35 4 3 2 5 -4 3 -7 -2 -20 6 -30 17 -11 11 -38 37
-61 57 -23 20 -39 39 -35 42 3 3 -2 6 -12 6 -9 0 -14 5 -11 10 3 6 1 10 -5 10
-6 0 -22 11 -36 25 -14 14 -29 25 -34 25 -6 0 -9 4 -7 8 1 5 -13 23 -30 39
-18 17 -33 29 -33 27 0 -2 -9 4 -19 13 -11 9 -18 20 -15 25 3 5 0 7 -6 6 -7
-2 -14 5 -15 16 -4 21 34 78 47 70 4 -3 8 -1 8 5 0 6 12 24 28 40 15 16 39 43
55 60 15 17 27 29 27 26 0 -3 6 0 14 7 8 7 12 16 10 20 -3 4 6 5 18 2 51 -12
118 -2 118 18 0 5 5 6 12 2 6 -4 8 -3 5 3 -4 6 0 16 8 23 8 7 12 16 9 21 -3 5
-1 9 4 9 12 0 3 74 -9 78 -5 2 -9 9 -9 15 0 7 -11 21 -25 31 -13 10 -22 23
-19 28 3 4 2 7 -3 6 -16 -6 -65 41 -57 54 4 7 4 10 -1 6 -4 -4 -14 0 -22 10
-9 10 -12 11 -7 2 4 -8 -15 8 -42 36 -27 28 -57 54 -66 57 -10 4 -18 10 -18
15 0 5 -6 9 -12 10 -65 6 -82 4 -93 -11 -7 -9 -15 -14 -18 -11 -14 15 -39 -61
-35 -110 3 -44 0 -54 -23 -78 -15 -15 -30 -24 -34 -20 -4 4 -5 0 -3 -8 2 -8
-2 -14 -9 -13 -8 2 -10 -4 -6 -14 4 -9 2 -14 -3 -11 -5 3 -17 -3 -26 -14 -10
-10 -16 -18 -13 -18 2 0 -9 -13 -25 -30 -16 -16 -34 -30 -40 -30 -6 0 -9 -4
-5 -9 3 -5 1 -12 -5 -16 -5 -3 -10 -1 -10 4 0 6 -3 10 -7 9 -14 -4 -54 23 -48
33 4 5 1 9 -5 9 -16 0 -86 73 -82 85 2 5 0 7 -3 3 -4 -4 -25 10 -46 31 -21 22
-40 36 -43 33 -3 -3 -6 3 -6 13 0 10 -2 16 -5 13 -3 -3 -35 23 -71 58 -36 35
-68 64 -72 64 -4 0 -14 9 -22 19 -7 11 -17 18 -22 15 -4 -3 -8 -2 -8 3 0 8
-57 12 -64 5z m56 -64 c13 3 19 1 15 -5 -4 -6 3 -13 14 -16 14 -4 20 -11 16
-20 -3 -9 1 -14 11 -13 10 1 16 -6 16 -16 -1 -10 2 -15 8 -12 12 7 39 -16 32
-27 -3 -5 3 -6 12 -2 11 4 15 3 10 -5 -3 -6 3 -13 14 -17 11 -3 20 -14 20 -22
0 -9 3 -14 6 -10 3 3 32 -21 64 -53 32 -32 61 -56 64 -53 3 4 6 -1 6 -11 0 -9
5 -14 10 -11 6 3 10 -1 10 -9 0 -9 7 -16 16 -16 8 0 12 -4 9 -10 -3 -5 1 -10
10 -10 8 0 20 -10 25 -22 5 -13 9 -19 9 -14 1 5 8 3 17 -5 16 -13 66 -20 58
-8 -2 4 6 9 17 12 12 3 18 10 15 15 -6 9 21 27 36 24 4 -1 4 6 1 15 -4 11 -3
14 5 9 7 -4 12 -3 12 3 0 5 27 37 60 71 33 34 60 66 60 71 0 6 5 7 10 4 9 -6
15 8 11 29 -1 5 5 6 14 3 8 -4 15 -2 15 3 0 6 -5 10 -12 10 -6 0 -9 3 -5 6 3
3 2 16 -3 29 -6 15 -4 27 3 35 9 10 9 11 0 6 -20 -11 -15 8 7 31 10 12 27 20
37 18 10 -2 21 -4 25 -4 4 -1 23 -16 41 -33 19 -18 57 -54 86 -80 28 -26 51
-52 51 -58 0 -6 4 -9 9 -6 12 8 59 -48 67 -78 4 -18 0 -30 -15 -42 -23 -20
-57 -28 -66 -15 -7 12 -59 3 -63 -10 -2 -5 -8 -7 -13 -3 -5 3 -9 -2 -9 -10 0
-9 -8 -16 -17 -16 -9 0 -14 -3 -10 -6 3 -4 -19 -31 -49 -61 -29 -30 -54 -59
-54 -64 0 -5 -5 -8 -12 -6 -7 1 -12 -3 -13 -10 0 -6 -15 -25 -32 -42 -18 -17
-29 -31 -25 -31 4 0 0 -5 -8 -10 -11 -7 -11 -10 -2 -10 7 0 10 -4 7 -10 -3 -5
-1 -10 4 -10 6 0 11 -7 11 -15 0 -8 7 -15 16 -15 8 0 13 -4 10 -9 -3 -5 1 -12
10 -15 8 -3 13 -10 9 -15 -3 -5 0 -13 6 -17 8 -4 9 -3 5 4 -4 7 -2 12 4 12 6
0 15 -11 20 -25 5 -14 12 -25 15 -25 4 0 3 6 -1 13 -4 6 2 3 15 -7 12 -11 20
-25 17 -32 -3 -8 0 -11 8 -8 14 5 30 -12 31 -31 0 -5 8 -9 18 -7 12 2 17 -4
18 -20 0 -13 3 -18 5 -11 6 14 94 -69 94 -88 0 -7 3 -10 6 -6 8 8 34 -18 34
-34 0 -7 3 -9 7 -6 9 9 34 -13 27 -24 -3 -5 3 -6 12 -2 14 5 16 3 11 -11 -4
-9 -3 -15 2 -12 5 3 11 -3 14 -14 3 -13 1 -18 -6 -13 -7 4 -6 -1 2 -10 7 -9 9
-17 5 -17 -5 0 -14 -10 -19 -22 -6 -13 -18 -22 -27 -22 -10 1 -16 -2 -13 -6
11 -17 -28 -20 -42 -3 -8 10 -12 12 -8 6 4 -9 1 -11 -9 -7 -9 3 -16 13 -16 22
0 8 -3 13 -6 9 -4 -3 -27 15 -53 42 -25 26 -54 50 -63 54 -10 3 -18 14 -18 23
0 10 -3 15 -6 11 -8 -8 -54 38 -54 54 0 7 -3 10 -6 6 -3 -3 -18 5 -32 19 -15
13 -30 24 -34 24 -5 0 -8 6 -8 13 0 7 -9 18 -20 25 -16 10 -20 10 -20 0 0 -10
-2 -10 -9 1 -6 9 -11 10 -15 2 -4 -6 -12 -9 -17 -6 -5 4 -12 -1 -15 -10 -4 -9
-13 -14 -21 -11 -8 3 -11 1 -8 -4 4 -7 -2 -9 -17 -6 -33 6 -58 17 -58 25 0 5
-18 8 -39 7 -22 0 -39 -5 -38 -11 1 -5 -3 -9 -10 -8 -6 1 -10 -5 -8 -15 1 -9
-1 -19 -6 -22 -4 -3 1 -23 11 -45 14 -30 16 -44 7 -60 -6 -11 -10 -22 -11 -25
0 -3 -11 -14 -25 -25 -16 -13 -22 -14 -17 -5 5 11 4 11 -6 -1 -7 -9 -19 -14
-27 -11 -8 3 -11 0 -7 -7 4 -6 3 -11 -3 -11 -14 0 -60 -47 -53 -54 3 -3 -2 -6
-12 -6 -9 0 -15 -4 -12 -9 3 -5 -1 -11 -8 -14 -8 -3 -17 -3 -19 1 -2 4 -2 1
-1 -5 4 -15 -94 -119 -108 -115 -5 1 -7 -1 -5 -5 7 -11 -19 -33 -29 -25 -4 4
-4 2 -1 -4 8 -13 -26 -47 -37 -37 -4 4 -4 0 0 -10 4 -12 1 -17 -10 -17 -9 0
-15 -3 -13 -8 1 -4 -19 -29 -45 -56 -27 -27 -48 -53 -48 -57 0 -5 -6 -9 -13
-9 -8 0 -20 -11 -27 -25 -7 -13 -17 -22 -21 -20 -4 3 -11 -4 -14 -16 -4 -13
-12 -18 -21 -15 -9 3 -12 1 -9 -5 4 -5 -25 -41 -63 -79 -38 -38 -67 -71 -64
-74 3 -4 -2 -6 -12 -6 -9 0 -14 -4 -11 -10 3 -5 -2 -10 -11 -10 -10 0 -15 -3
-11 -6 8 -8 -18 -34 -33 -34 -6 0 -9 -4 -6 -8 7 -12 -48 -64 -58 -55 -4 4 -4
-1 0 -10 4 -12 2 -17 -7 -15 -8 2 -13 -3 -11 -11 2 -9 -3 -11 -13 -7 -9 3 -14
2 -11 -3 3 -5 -5 -20 -19 -35 -13 -15 -24 -29 -24 -31 4 -18 -13 -65 -27 -79
-13 -14 -19 -14 -32 -4 -13 11 -14 11 -8 0 15 -24 -79 5 -95 30 -8 13 -81 19
-74 7 6 -8 -8 -13 -28 -10 -4 0 -6 -2 -6 -6 3 -20 -2 -34 -10 -29 -5 3 -12 -1
-15 -10 -3 -8 -11 -12 -17 -8 -7 4 -9 3 -6 -3 5 -8 -76 -93 -96 -100 -4 -2 -7
-5 -7 -8 1 -11 -25 -33 -32 -28 -5 2 -8 -3 -8 -12 0 -8 -11 -20 -25 -27 -13
-6 -22 -15 -19 -20 3 -5 -3 -12 -15 -15 -12 -3 -21 -9 -21 -14 0 -4 -9 -7 -20
-6 -11 1 -20 5 -20 9 0 4 -5 7 -11 6 -6 -2 -13 6 -15 16 -3 22 10 50 37 80 11
11 19 23 19 28 0 4 7 4 17 1 10 -4 14 -2 9 5 -3 6 4 21 17 34 13 13 35 39 49
58 47 63 114 130 122 123 4 -4 4 0 0 10 -3 9 -2 17 4 17 13 0 7 63 -7 68 -6 2
-9 8 -5 13 3 5 -2 9 -11 9 -9 0 -14 4 -11 9 4 5 2 11 -4 13 -9 3 -15 42 -11
79 1 18 66 54 80 45 5 -3 19 8 31 24 12 16 27 27 31 24 5 -3 9 2 9 10 0 9 5
16 10 16 6 0 10 7 10 15 0 8 5 15 11 15 5 0 7 -5 3 -12 -5 -7 -3 -8 5 -4 7 5
10 14 7 22 -3 8 -1 14 5 14 6 0 17 7 25 15 9 8 13 15 10 15 -3 0 3 9 14 20 12
12 26 18 32 14 7 -4 8 -3 4 4 -10 16 110 135 127 126 9 -5 9 -4 0 6 -9 10 -6
18 15 39 14 14 30 25 34 24 4 -2 7 3 5 10 -1 6 4 11 10 10 7 -2 12 0 11 5 -4
11 53 67 64 64 5 -1 7 2 3 8 -3 5 -1 10 4 10 6 0 10 6 8 13 -1 7 6 11 17 9 10
-2 15 1 12 6 -7 11 88 114 98 107 3 -3 4 -2 1 2 -8 10 26 43 38 36 6 -3 7 -1
3 5 -4 7 -2 12 4 12 6 0 8 5 4 12 -5 8 -2 9 10 5 13 -5 17 -3 13 7 -6 14 34
56 53 56 6 0 9 6 7 13 -1 6 6 11 15 11 9 -1 14 4 12 10 -4 11 48 69 60 67 3
-1 6 2 7 7 1 4 10 19 20 33 10 14 16 29 12 33 -3 3 -1 6 6 6 7 0 9 5 6 10 -3
6 -1 10 5 10 6 0 8 5 4 12 -5 7 -2 9 9 5 11 -4 14 -2 10 9 -5 12 7 19 30 15 4
0 7 3 7 8 0 4 11 6 25 3 14 -2 25 -9 25 -14 0 -5 5 -6 10 -3 6 3 10 1 10 -6 0
-8 4 -8 16 2 13 10 17 10 26 -2 8 -12 9 -12 6 0 -3 8 4 23 14 33 10 10 16 23
13 28 -4 6 -1 10 4 10 12 0 -5 36 -25 55 -15 14 -25 45 -15 45 5 0 8 8 7 17 0
10 4 18 11 18 6 0 15 4 20 9 5 5 3 6 -4 2 -14 -8 -18 6 -5 18 8 9 11 56 2 52
-9 -5 -69 62 -62 70 4 4 -1 4 -10 1 -12 -4 -18 -1 -18 8 0 8 -5 15 -11 15 -5
0 -7 6 -3 13 4 6 3 9 -1 4 -11 -10 -56 33 -48 46 3 6 1 7 -5 3 -6 -3 -36 19
-66 49 -31 30 -62 55 -68 55 -6 0 -8 3 -5 7 4 3 -2 13 -14 21 -13 9 -19 21
-16 33 3 11 1 17 -4 13 -5 -3 -9 0 -9 5 0 6 5 11 11 11 5 0 8 4 5 8 -3 5 11
23 31 41 30 26 38 30 45 18 5 -10 16 -13 30 -9z"/>
<path d="M1220 2389 c0 -6 -7 -8 -16 -5 -8 3 -12 2 -9 -3 3 -5 1 -12 -5 -16
-6 -4 11 -27 39 -53 189 -181 311 -295 327 -307 17 -12 16 -16 -24 -59 -23
-25 -42 -48 -42 -52 0 -3 20 -24 45 -47 l46 -42 -76 -77 c-41 -43 -79 -78 -82
-78 -4 0 -22 14 -40 32 -27 26 -35 29 -48 18 -8 -7 -13 -20 -10 -30 3 -11 -17
-40 -63 -88 -38 -39 -100 -106 -140 -148 -45 -49 -75 -73 -83 -68 -8 5 -10 3
-4 -6 5 -8 -7 -27 -33 -54 -23 -22 -63 -64 -89 -92 -122 -131 -325 -345 -396
-418 -104 -107 -104 -106 -60 -145 29 -26 33 -34 23 -46 -18 -22 -23 -20 -79
37 l-51 51 0 -29 c0 -21 14 -44 50 -83 l50 -53 -36 -42 c-20 -22 -42 -45 -48
-51 -7 -5 -19 -20 -28 -33 -8 -12 -33 -42 -54 -65 -85 -92 -167 -191 -139
-167 17 14 34 31 38 38 4 6 29 31 54 55 25 23 88 84 139 135 51 50 99 92 106
92 7 0 33 -18 58 -40 31 -28 54 -40 75 -40 l29 0 -51 53 c-47 48 -58 77 -30
77 7 0 27 -14 46 -32 l34 -32 60 65 c53 56 193 205 397 419 36 37 121 128 190
200 69 73 155 165 193 204 42 45 75 71 88 71 12 0 27 8 33 17 8 14 4 23 -27
50 l-38 33 79 83 78 84 31 -35 c52 -59 63 -60 103 -11 19 23 38 43 41 43 3 1
31 -23 61 -51 31 -29 115 -109 187 -178 72 -69 135 -125 139 -125 4 0 18 8 31
17 l24 17 -34 32 c-19 17 -99 93 -178 168 -79 75 -172 163 -207 195 -36 33
-63 63 -62 67 2 4 60 67 129 141 69 73 142 151 162 172 45 48 58 51 93 19 20
-18 29 -21 35 -12 5 8 -13 32 -53 68 -33 31 -84 80 -113 109 -29 28 -58 52
-64 52 -18 0 -13 -24 9 -43 11 -9 20 -23 20 -31 0 -8 -43 -58 -95 -112 -52
-53 -95 -98 -95 -99 0 -1 -33 -38 -74 -81 l-75 -79 -78 77 c-43 42 -97 93
-120 114 -133 123 -247 231 -261 247 -19 19 -32 22 -32 6z"/>
</g>
</svg>
